ply
format ascii 1.0
element vertex 832
property float x
property float y
property float z
property float nx
property float ny
property float nz
end_header
128.0 165.89914 207.0 0.0 0.15946674 0.9872033
128.0 90.100784 207.0 0.0 -0.15945883 0.98720455
128.0 83.96737 202.0 -0.06022117 -0.89594245 0.44006875
128.0 84.45855 203.0 -0.06022117 -0.89594245 0.44006875
128.0 85.13684 204.0 0.07739232 -0.7896499 0.6086571
128.0 172.03261 202.0 0.060214244 0.8959492 0.440056
128.0 171.54146 203.0 0.060214244 0.8959492 0.440056
128.0 170.86316 204.0 -0.077393994 0.7896681 0.6086333
128.0 168.66794 206.0 -0.059129898 0.46332523 0.88421345
128.0 170.001 205.0 0.040515903 0.681175 0.7309987
128.0 87.33201 206.0 0.059121024 -0.46330684 0.88422364
128.0 85.99899 205.0 -0.0405135 -0.68116665 0.73100656
128.0 83.71815 201.0 0.10124424 -0.9703696 0.21939111
128.0 83.56116 200.0 0.0 -0.99077374 0.13552657
128.0 172.28185 201.0 -0.101234615 0.9703725 0.21938257
128.0 172.43884 200.0 0.0 0.9907743 0.13552234
128.0 89.997665 57.0 0.005783547 0.999933 -0.010029352
128.0 89.986694 55.0 -0.0033232756 0.99999356 -0.0013581436
128.0 89.98805 56.0 -0.0033232756 0.99999356 -0.0013581436
128.0 89.99435 58.0 0.008390127 0.9999389 0.00720032
128.0 89.987144 59.0 0.008390127 0.9999389 0.00720032
128.0 166.01062 123.0 0.017004473 -0.9998262 -0.0076470175
128.0 166.0057 124.0 0.01588692 -0.99984473 0.00762026
128.0 166.01334 125.0 0.01588692 -0.99984473 0.00762026
128.0 89.9882 123.0 -0.018373495 0.99980235 -0.007594579
128.0 89.99283 124.0 -0.017272122 0.9998224 0.007539681
128.0 166.00438 58.0 -0.0061989822 -0.9999526 0.007507453
128.0 166.01189 59.0 -0.0061989822 -0.9999526 0.007507453
128.0 166.00075 183.0 0.0057838727 -0.999933 0.0100271
128.0 166.01077 184.0 0.0057838727 -0.999933 0.0100271
128.0 166.01309 185.0 -0.0033207138 -0.99999356 0.0013583475
128.0 166.01399 181.0 0.008390128 -0.9999389 -0.007200249
128.0 166.00679 182.0 0.008390128 -0.9999389 -0.007200249
128.0 89.986885 181.0 -0.006231604 0.9999524 -0.0075121964
128.0 89.9944 182.0 -0.006231604 0.9999524 -0.0075121964
128.0 166.00586 126.0 -0.012041584 -0.99989814 -0.007664567
128.0 89.9872 125.0 0.010593545 0.9999145 -0.007662612
128.0 89.99486 126.0 0.010593545 0.9999145 -0.007662612
128.0 166.00896 84.0 -0.0014283507 -0.9999989 -0.00035844592
128.0 166.0086 85.0 -0.0014283507 -0.9999989 -0.00035844592
128.0 166.00864 155.0 0.0015263399 -0.99999875 0.00039021022
128.0 166.00902 156.0 0.0015263399 -0.99999875 0.00039021022
128.0 166.01056 86.0 -0.0027611174 -0.9999922 0.0028223707
128.0 166.01323 141.0 -0.0006406165 -0.99997115 -0.007571229
128.0 166.00565 142.0 -0.0006406165 -0.99997115 -0.007571229
128.0 165.9991 143.0 -0.00062036683 -0.9999739 0.007198164
128.0 166.0063 144.0 -0.00062036683 -0.9999739 0.007198164
128.0 166.0135 145.0 -0.00062036683 -0.9999739 0.007198164
128.0 166.00525 98.0 0.0019385245 -0.9999687 0.007668775
128.0 166.01291 99.0 0.0019385245 -0.9999687 0.007668775
128.0 166.01402 95.0 0.0019367856 -0.9999716 -0.0072789225
128.0 166.00674 96.0 0.0019367856 -0.9999716 -0.0072789225
128.0 165.99947 97.0 0.0019367856 -0.9999716 -0.0072789225
128.0 166.01016 121.0 -0.021394301 -0.9997457 -0.0071226987
128.0 166.011 110.0 -0.018035578 -0.9998066 -0.007840954
128.0 166.00824 109.0 0.011160279 -0.9999079 0.007717977
128.0 166.00613 111.0 -0.019111402 -0.9997871 0.007782804
128.0 166.01392 112.0 -0.019111402 -0.9997871 0.007782804
128.0 89.98899 110.0 0.017019698 0.99982464 -0.0078121945
128.0 89.9922 109.0 -0.011887091 0.99989945 0.0077351686
128.0 89.99537 111.0 0.018253563 0.9998031 0.007781755
128.0 89.98759 112.0 0.018253563 0.9998031 0.007781755
128.0 89.990654 121.0 0.019390315 0.99978745 -0.007005
128.0 89.987404 141.0 -0.00139788 0.99996954 -0.0076785134
128.0 89.99509 142.0 -0.00139788 0.99996954 -0.0076785134
128.0 90.00077 143.0 -0.0013742541 0.999967 0.008007258
128.0 89.99276 144.0 -0.0013742541 0.999967 0.008007258
128.0 89.98475 145.0 -0.0013742541 0.999967 0.008007258
128.0 89.9949 98.0 -0.0022436285 0.9999683 0.0076415576
128.0 89.98727 99.0 -0.0022436285 0.9999683 0.0076415576
128.0 89.98426 95.0 -0.0022672615 0.9999655 -0.007990454
128.0 89.992256 96.0 -0.0022672615 0.9999655 -0.007990454
128.0 90.000244 97.0 -0.0022672615 0.9999655 -0.007990454
128.0 166.00645 127.0 -0.012539732 -0.9998927 0.007569141
128.0 166.01402 128.0 -0.012539732 -0.9998927 0.007569141
128.0 166.01126 113.0 0.021518743 -0.9997406 -0.0074619134
128.0 89.993546 127.0 0.011032005 0.99991095 0.0075115236
128.0 89.98604 128.0 0.011032005 0.99991095 0.0075115236
128.0 89.98696 113.0 -0.0227954 0.99971265 -0.0074164243
128.0 166.00922 56.0 -0.008449793 -0.99993485 -0.007674305
128.0 166.00154 57.0 -0.008449793 -0.99993485 -0.007674305
128.0 166.01566 55.0 -0.020042654 -0.99979776 0.001640713
128.0 89.98103 85.0 0.021208866 0.9997726 0.002216035
128.0 166.01434 130.0 -0.00791022 -0.99993855 -0.007765892
128.0 166.00658 131.0 -0.00791022 -0.99993855 -0.007765892
128.0 166.01024 129.0 0.023598978 -0.9996911 -0.007793384
128.0 89.986626 130.0 0.0064990316 0.99994856 -0.0077874777
128.0 89.994415 131.0 0.0064990316 0.99994856 -0.0077874777
128.0 89.989006 129.0 -0.02485624 0.99966055 -0.007803542
128.0 166.0184 93.0 0.01610433 -0.99987006 0.0007213796
128.0 166.01913 94.0 0.01610433 -0.99987006 0.0007213796
128.0 89.99058 76.0 -0.0019360372 0.99992275 -0.012276793
128.0 89.99967 183.0 -0.0084869675 0.99993455 0.007674379
128.0 89.992 184.0 -0.0084869675 0.99993455 0.007674379
128.0 89.98432 185.0 -0.0084869675 0.99993455 0.007674379
128.0 166.01115 114.0 0.02016134 -0.99977314 0.006865681
128.0 166.01865 146.0 -0.015392227 -0.9998813 -0.0006376158
128.0 166.018 147.0 -0.015392227 -0.9998813 -0.0006376158
128.0 89.98852 114.0 -0.021358673 0.9997482 0.006888355
128.0 166.0093 76.0 0.0017060585 -0.9999226 -0.012324184
128.0 166.01979 165.0 -0.016668394 -0.9998608 0.0007003566
128.0 166.00755 164.0 -0.0017979074 -0.9999232 0.012259947
128.0 166.01099 154.0 0.002889685 -0.9999918 -0.0028364928
128.0 89.981834 86.0 -0.019976279 0.99979794 -0.0022379712
128.0 89.980675 165.0 0.015993884 0.99987185 0.0006497295
128.0 89.99296 164.0 0.00081146124 0.9999225 0.012422763
128.0 166.01825 53.0 -0.021456473 -0.9997685 -0.0016087622
128.0 166.01665 54.0 -0.021456473 -0.9997685 -0.0016087622
128.0 89.98359 186.0 -0.021475645 0.9997681 0.0016059141
128.0 89.98199 187.0 -0.021475645 0.9997681 0.0016059141
128.0 89.98038 188.0 -0.021475645 0.9997681 0.0016059141
128.0 89.994995 83.0 -0.010489528 0.99988985 0.010503045
128.0 89.9845 84.0 -0.010489528 0.99988985 0.010503045
128.0 166.01472 106.0 -0.024594037 -0.99966735 0.007770535
128.0 166.00977 107.0 0.01153277 -0.99990386 -0.007698712
128.0 166.00206 108.0 0.01153277 -0.99990386 -0.007698712
128.0 166.00096 132.0 -0.007915048 -0.999939 0.0076978416
128.0 166.00865 133.0 -0.007915048 -0.999939 0.0076978416
128.0 166.01636 134.0 -0.007915048 -0.999939 0.0076978416
128.0 89.98442 80.0 0.02798875 0.9995774 0.007850631
128.0 166.00253 83.0 0.00763278 -0.99994403 0.007322771
128.0 166.00357 157.0 -0.0075970027 -0.99994457 -0.00729341
128.0 89.98359 156.0 0.008754294 0.9999058 -0.010566395
128.0 89.994156 157.0 0.008754294 0.9999058 -0.010566395
128.0 166.01566 80.0 -0.028321672 -0.9995747 0.0069464818
128.0 89.9863 106.0 0.02424635 0.9996758 0.0077735335
128.0 89.989426 107.0 -0.012362125 0.9998939 -0.0077042207
128.0 89.99713 108.0 -0.012362125 0.9998939 -0.0077042207
128.0 89.998726 132.0 0.0064960592 0.9999494 0.0076829297
128.0 89.99104 133.0 0.0064960592 0.9999494 0.0076829297
128.0 89.98335 134.0 0.0064960592 0.9999494 0.0076829297
128.0 89.98705 66.0 -0.026773857 0.99956095 0.012691039
128.0 166.01291 66.0 0.026742572 -0.9995617 0.012698054
128.0 89.9854 61.0 0.0070830784 0.999948 -0.007332058
128.0 89.99273 62.0 0.0070830784 0.999948 -0.007332058
128.0 90.00006 63.0 0.0070830784 0.999948 -0.007332058
128.0 89.993454 64.0 0.0070830346 0.999948 0.0073308414
128.0 89.98612 65.0 0.0070830346 0.999948 0.0073308414
128.0 166.0146 61.0 -0.0071214945 -0.9999477 -0.0073383874
128.0 166.00726 62.0 -0.0071214945 -0.9999477 -0.0073383874
128.0 165.99992 63.0 -0.0071214945 -0.9999477 -0.0073383874
128.0 166.00655 64.0 -0.007116429 -0.9999478 0.0073354887
128.0 166.01389 65.0 -0.007116429 -0.9999478 0.0073354887
128.0 166.0061 178.0 0.0070906826 -0.99994797 0.007333188
128.0 166.01344 179.0 0.0070906826 -0.99994797 0.007333188
128.0 166.01503 175.0 0.007090617 -0.999948 -0.0073299594
128.0 166.00769 176.0 0.007090617 -0.999948 -0.0073299594
128.0 166.00037 177.0 0.007090617 -0.999948 -0.0073299594
128.0 89.99391 178.0 -0.007221129 0.99994695 0.007348753
128.0 89.986565 179.0 -0.007221129 0.99994695 0.007348753
128.0 89.98488 175.0 -0.007204486 0.9999471 -0.007342486
128.0 89.992226 176.0 -0.007204486 0.9999471 -0.007342486
128.0 89.999565 177.0 -0.007204486 0.9999471 -0.007342486
128.0 166.01286 105.0 -0.024477346 -0.99967015 -0.007772533
128.0 166.00215 103.0 0.0067016263 -0.9999474 0.0077597513
128.0 166.0099 104.0 0.0067016263 -0.9999474 0.0077597513
128.0 166.01212 101.0 0.006731709 -0.9999476 -0.007712777
128.0 166.0044 102.0 0.006731709 -0.9999476 -0.007712777
128.0 166.01532 100.0 -0.029056739 -0.99954784 0.0077356193
128.0 166.0157 135.0 0.02722922 -0.99959964 0.0076899827
128.0 166.00943 136.0 -0.0045458693 -0.9999601 -0.0076843165
128.0 166.00174 137.0 -0.0045458693 -0.9999601 -0.0076843165
128.0 166.00385 138.0 -0.0045093372 -0.99996066 0.0076411315
128.0 166.01149 139.0 -0.0045093372 -0.99996066 0.0076411315
128.0 166.01756 140.0 0.030694429 -0.9994996 -0.007639234
128.0 89.98719 105.0 0.024040768 0.9996807 -0.007781092
128.0 89.99821 103.0 -0.0070587173 0.99994504 0.0077529084
128.0 89.990456 104.0 -0.0070587173 0.99994504 0.0077529084
128.0 89.98756 101.0 -0.007147919 0.9999447 -0.007716102
128.0 89.99527 102.0 -0.007147919 0.9999447 -0.007716102
128.0 89.985275 100.0 0.02880046 0.99955547 0.007710519
128.0 89.9838 135.0 0.0029277038 0.9999657 -0.0077404333
128.0 89.99155 136.0 0.0029277038 0.9999657 -0.0077404333
128.0 89.99929 137.0 0.0029277038 0.9999657 -0.0077404333
128.0 89.99589 138.0 0.0029333446 0.99996626 0.007669054
128.0 89.98822 139.0 0.0029333446 0.99996626 0.007669054
128.0 89.98089 140.0 -0.03275897 0.99943334 -0.0077343103
128.0 166.01492 174.0 -0.026760789 -0.9995613 -0.012688513
128.0 89.98512 174.0 0.026633918 0.99956435 -0.012718662
128.0 89.9824 71.0 -0.012905244 0.99991655 0.0005330205
128.0 89.981865 72.0 -0.012905244 0.99991655 0.0005330205
128.0 89.98975 93.0 0.0026567709 0.9999755 0.0064773466
128.0 89.98328 94.0 0.0026567709 0.9999755 0.0064773466
128.0 89.98324 90.0 0.0026457587 0.9999788 -0.005952815
128.0 89.98919 91.0 0.0026457587 0.9999788 -0.005952815
128.0 89.99514 92.0 0.0026457587 0.9999788 -0.005952815
128.0 166.01755 71.0 0.012819084 -0.9999177 0.000525103
128.0 166.01807 72.0 0.012819084 -0.9999177 0.000525103
128.0 166.01819 168.0 -0.012864009 -0.9999171 -0.00052584213
128.0 166.01765 169.0 -0.012864009 -0.9999171 -0.00052584213
128.0 89.982414 146.0 -0.0058609853 0.9999614 -0.0065457188
128.0 89.98896 147.0 -0.0058609853 0.9999614 -0.0065457188
128.0 89.9955 148.0 -0.005883562 0.99996454 0.0060247374
128.0 89.98947 149.0 -0.005883562 0.99996454 0.0060247374
128.0 89.98204 168.0 0.012498895 0.9999218 -0.00048336884
128.0 89.98253 169.0 0.012498895 0.9999218 -0.00048336884
128.0 166.01471 122.0 -0.022535698 -0.99971753 0.0075531825
128.0 89.986496 122.0 0.020521577 0.99976176 0.0074390518
128.0 89.98277 87.0 -0.015362167 0.9998819 -0.0003805805
128.0 89.983154 88.0 -0.015362167 0.9998819 -0.0003805805
128.0 89.98353 89.0 -0.015362167 0.9998819 -0.0003805805
128.0 166.01657 160.0 0.028203549 -0.9995784 -0.0068982295
128.0 89.984 154.0 0.017792365 0.9998388 0.0023901537
128.0 89.98161 155.0 0.017792365 0.9998388 0.0023901537
128.0 89.98526 151.0 0.012863743 0.99991715 0.0004945925
128.0 89.984764 152.0 0.012863743 0.99991715 0.0004945925
128.0 89.98427 153.0 0.012863743 0.99991715 0.0004945925
128.0 89.987465 60.0 -0.02599795 0.9996382 -0.0068992223
128.0 166.01265 60.0 0.025978176 -0.9996315 -0.007871955
128.0 166.01149 180.0 -0.02599355 -0.9996352 -0.0073326984
128.0 89.98855 180.0 0.025937846 0.9996366 -0.007342971
128.0 89.989204 54.0 0.0014672033 0.9999927 0.003527665
128.0 89.98224 52.0 0.0037386867 0.99998415 -0.0042143855
128.0 89.98645 53.0 0.0037386867 0.99998415 -0.0042143855
128.0 166.01135 186.0 0.0014695304 -0.9999927 -0.0035271777
128.0 166.01288 187.0 0.0037411572 -0.99998415 0.0042150733
128.0 166.01709 188.0 0.0037411572 -0.99998415 0.0042150733
128.0 89.981606 73.0 -0.016127296 0.9998697 0.00068247505
128.0 89.98092 74.0 -0.016127296 0.9998697 0.00068247505
128.0 89.98024 75.0 -0.016127296 0.9998697 0.00068247505
128.0 166.01833 73.0 0.015987802 -0.99987197 0.00066870434
128.0 166.01898 74.0 0.015987802 -0.99987197 0.00066870434
128.0 166.01965 75.0 0.015987802 -0.99987197 0.00066870434
128.0 166.01913 166.0 -0.016035816 -0.9998712 -0.00066930056
128.0 166.01846 167.0 -0.016035816 -0.9998712 -0.00066930056
128.0 89.98123 166.0 0.015420949 0.9998809 -0.0006113659
128.0 89.98184 167.0 0.015420949 0.9998809 -0.0006113659
128.0 89.98302 69.0 -0.011690149 0.9999316 0.00036178232
128.0 89.98266 70.0 -0.011690149 0.9999316 0.00036178232
128.0 166.01694 69.0 0.011623938 -0.99993235 0.00035432205
128.0 166.0173 70.0 0.011623938 -0.99993235 0.00035432205
128.0 166.01738 170.0 -0.011660815 -0.99993193 -0.00035841687
128.0 166.01701 171.0 -0.011660815 -0.99993193 -0.00035841687
128.0 89.982765 170.0 0.0113871265 0.9999351 -0.00032828248
128.0 89.98309 171.0 0.0113871265 0.9999351 -0.00032828248
128.0 89.98321 172.0 0.010501759 0.9999448 -0.000247439
128.0 89.98346 173.0 0.010501759 0.9999448 -0.000247439
128.0 166.00952 115.0 -0.004051137 -0.99997115 -0.0064233327
128.0 166.0031 116.0 -0.004051137 -0.99997115 -0.0064233327
128.0 166.00519 118.0 0.0030870673 -0.999993 -0.0021149076
128.0 166.00539 117.0 -0.0023208922 -0.9999934 0.002804427
128.0 89.98999 115.0 0.0024711764 0.99997693 -0.006327257
128.0 89.996315 116.0 0.0024711764 0.99997693 -0.006327257
128.0 89.994064 118.0 -0.0047279294 0.99998665 -0.0020912695
128.0 89.99464 117.0 0.00081617763 0.9999954 0.00291771
128.0 166.00584 119.0 0.0048501757 -0.9999681 0.006346096
128.0 166.01219 120.0 0.0048501757 -0.9999681 0.006346096
128.0 89.99378 119.0 -0.006432254 0.9999595 0.0062893336
128.0 89.98749 120.0 -0.006432254 0.9999595 0.0062893336
128.0 166.01979 52.0 0.022027183 -0.9997565 0.001323194
128.0 166.01677 91.0 0.016100287 -0.99987 0.0009047037
128.0 166.01767 92.0 0.016100287 -0.99987 0.0009047037
128.0 166.01736 148.0 -0.015388272 -0.99988127 -0.00080941373
128.0 166.01656 149.0 -0.015388272 -0.99988127 -0.00080941373
128.0 166.01254 87.0 -0.008566373 -0.9999609 -0.0021991336
128.0 166.01299 88.0 -0.010062917 -0.9999412 0.004042422
128.0 166.01703 89.0 -0.010062917 -0.9999412 0.004042422
128.0 166.01244 153.0 0.008783832 -0.99995893 0.002219061
128.0 166.0176 151.0 0.01029347 -0.99993896 -0.004011603
128.0 166.01358 152.0 0.01029347 -0.99993896 -0.004011603
128.0 166.01364 90.0 0.02969373 -0.9995333 -0.0071716527
128.0 166.01369 150.0 -0.02544182 -0.9996401 -0.0085046
128.0 89.98423 150.0 0.027871743 0.9995692 -0.009201085
128.0 166.01689 172.0 -0.010703031 -0.99994266 -0.0002669071
128.0 166.01662 173.0 -0.010703031 -0.99994266 -0.0002669071
128.0 166.01656 67.0 0.010674566 -0.999943 0.0002651369
128.0 166.01683 68.0 0.010674566 -0.999943 0.0002651369
128.0 89.9884 81.0 -0.007910156 0.9999415 -0.007374018
128.0 89.99577 82.0 -0.007910156 0.9999415 -0.007374018
128.0 90.00039 77.0 -0.001936396 0.99997115 0.0073426664
128.0 89.99305 78.0 -0.001936396 0.99997115 0.0073426664
128.0 89.98571 79.0 -0.001936396 0.99997115 0.0073426664
128.0 166.01187 81.0 0.0097162975 -0.9999256 -0.0073695327
128.0 166.0045 82.0 0.0097162975 -0.9999256 -0.0073695327
128.0 165.99957 77.0 0.001733949 -0.99997133 0.0073709595
128.0 166.00694 78.0 0.001733949 -0.99997133 0.0073709595
128.0 166.01431 79.0 0.001733949 -0.99997133 0.0073709595
128.0 166.00362 158.0 -0.009701718 -0.99992615 0.0073203305
128.0 166.01093 159.0 -0.009701718 -0.99992615 0.0073203305
128.0 166.01537 161.0 -0.0017988178 -0.9999715 -0.0073312474
128.0 166.00803 162.0 -0.0017988178 -0.9999715 -0.0073312474
128.0 166.0007 163.0 -0.0017988178 -0.9999715 -0.0073312474
128.0 89.98497 189.0 0.0 0.999976 -0.0069326526
128.0 89.991905 190.0 0.0 0.999976 -0.0069326526
128.0 89.99884 191.0 0.0 0.999976 -0.0069326526
128.0 89.99782 158.0 0.006018803 0.99995387 0.0074885003
128.0 89.99033 159.0 0.006018803 0.99995387 0.0074885003
128.0 89.98284 160.0 0.006018803 0.99995387 0.0074885003
128.0 89.98445 161.0 0.000932458 0.999972 -0.0074299346
128.0 89.99188 162.0 0.000932458 0.999972 -0.0074299346
128.0 89.99931 163.0 0.000932458 0.999972 -0.0074299346
128.0 166.01732 189.0 -0.0 -0.99996877 -0.007902639
128.0 166.00941 190.0 -0.0 -0.99996877 -0.007902639
128.0 166.00151 191.0 -0.0 -0.99996877 -0.007902639
128.0 166.00006 49.0 0.0 -0.999976 0.006931185
128.0 166.00699 50.0 0.0 -0.999976 0.006931185
128.0 166.01392 51.0 0.0 -0.999976 0.006931185
128.0 89.99973 49.0 0.0 0.99996877 0.007901319
128.0 89.99183 50.0 0.0 0.99996877 0.007901319
128.0 89.98393 51.0 0.0 0.99996877 0.007901319
128.0 89.983406 67.0 -0.010721282 0.9999425 0.00026886768
128.0 89.98314 68.0 -0.010721282 0.9999425 0.00026886768
128.0 84.207245 52.0 0.0 -0.71124953 -0.7029396
128.0 87.197876 49.0 0.01477014 -0.70702964 -0.70702964
128.0 86.197876 50.0 0.01477014 -0.70702964 -0.70702964
128.0 85.197876 51.0 0.01477014 -0.70702964 -0.70702964
128.0 171.79276 52.0 0.0 0.71124953 -0.7029396
128.0 168.80212 49.0 0.014771653 0.70702964 -0.70702964
128.0 169.80212 50.0 0.014771653 0.70702964 -0.70702964
128.0 170.80212 51.0 0.014771653 0.70702964 -0.70702964
128.0 172.54503 187.0 -0.016238881 0.9998447 -0.0068473383
128.0 172.54756 186.0 -0.016655065 0.9998381 0.0068057464
128.0 83.45496 187.0 0.01624511 -0.9998446 -0.0068474333
128.0 83.45242 186.0 0.016660808 -0.99983805 0.0068048155
128.0 83.45597 65.0 -0.014264001 -0.999876 0.006670341
128.0 83.453316 66.0 -0.014650836 -0.99987054 -0.006650546
128.0 172.54402 65.0 0.014265425 0.999876 0.006669615
128.0 172.54668 66.0 0.0146524515 0.99987054 -0.006650837
128.0 172.54626 112.0 0.010525552 0.99994105 -0.002667915
128.0 172.54893 113.0 0.010525552 0.99994105 -0.002667915
128.0 172.5516 114.0 0.010525552 0.99994105 -0.002667915
128.0 172.54941 111.0 0.0097533595 0.9999439 0.0041314345
128.0 172.54785 162.0 0.021823002 0.99974585 -0.0056595565
128.0 83.45226 162.0 -0.021701958 -0.99974847 -0.0056579397
128.0 83.4563 139.0 0.012129955 -0.9999182 0.0040577697
128.0 83.45252 137.0 0.009004166 -0.99995875 0.001188817
128.0 83.45371 138.0 0.009004166 -0.99995875 0.001188817
128.0 83.45453 140.0 0.015265591 -0.99986935 -0.0053160167
128.0 83.44921 141.0 0.015265591 -0.99986935 -0.0053160167
128.0 172.54716 140.0 -0.008869628 0.99995834 0.0021447523
128.0 172.54396 138.0 -0.0014766984 0.99999255 -0.00355881
128.0 172.54753 139.0 -0.0014766984 0.99999255 -0.00355881
128.0 172.55034 141.0 -0.01048701 0.99993795 -0.0037615958
128.0 172.54805 163.0 -0.008329613 0.99994296 0.006687753
128.0 172.54137 164.0 -0.008329613 0.99994296 0.006687753
128.0 83.451904 163.0 0.008401165 -0.9999423 0.0066928104
128.0 83.458595 164.0 0.008401165 -0.9999423 0.0066928104
128.0 172.54378 177.0 -0.0063928454 0.9999607 -0.0061417185
128.0 172.54991 178.0 -0.0063928454 0.9999607 -0.0061417185
128.0 83.45622 177.0 0.006414636 -0.99996054 -0.0061421487
128.0 83.45008 178.0 0.006414636 -0.99996054 -0.0061421487
128.0 83.45483 75.0 -0.009280126 -0.9999399 0.00583624
128.0 172.54517 75.0 0.009264612 0.99994004 0.0058349706
128.0 83.44666 116.0 -0.023373954 -0.999716 -0.004644329
128.0 83.448494 114.0 0.020792535 -0.9997814 -0.0021718524
128.0 83.44632 115.0 0.020792535 -0.9997814 -0.0021718524
128.0 83.45047 113.0 0.017028607 -0.99983984 0.0055068745
128.0 172.5464 193.0 0.0046778843 0.99996424 0.007045507
128.0 172.53937 194.0 0.0046778843 0.99996424 0.007045507
128.0 172.54208 195.0 0.004986697 0.9999623 -0.0071141426
128.0 172.5492 196.0 0.004986697 0.9999623 -0.0071141426
128.0 172.5479 192.0 -0.020769088 0.9997596 -0.0070229317
128.0 83.45358 193.0 -0.0046777967 -0.99996424 0.007048548
128.0 83.46063 194.0 -0.0046777967 -0.99996424 0.007048548
128.0 83.45792 195.0 -0.0049867216 -0.9999623 -0.007114268
128.0 83.450806 196.0 -0.0049867216 -0.9999623 -0.007114268
128.0 83.4521 192.0 0.020775229 -0.9997595 -0.0070231524
128.0 172.5513 157.0 0.007814621 0.9999695 0.00012316962
128.0 83.44877 157.0 -0.007614064 -0.999971 0.00014878971
128.0 172.54399 190.0 0.0098231705 0.99992764 -0.0069455197
128.0 172.55093 191.0 0.0098231705 0.99992764 -0.0069455197
128.0 83.449135 95.0 0.0036897406 -0.999993 0.0006185818
128.0 172.55093 95.0 -0.004040804 0.9999916 0.0006494126
128.0 83.456 190.0 -0.00982149 -0.99992764 -0.006946657
128.0 83.44905 191.0 -0.00982149 -0.99992764 -0.006946657
128.0 83.4599 58.0 0.00562763 -0.9999607 -0.0068448507
128.0 83.45306 59.0 0.00562763 -0.9999607 -0.0068448507
128.0 83.450386 56.0 0.0062026973 -0.99995655 0.006958701
128.0 83.457344 57.0 0.0062026973 -0.99995655 0.006958701
128.0 172.5401 58.0 -0.0056276806 0.9999607 -0.006843307
128.0 172.54694 59.0 -0.0056276806 0.9999607 -0.006843307
128.0 172.5496 56.0 -0.006202679 0.99995655 0.0069586355
128.0 172.54265 57.0 -0.006202679 0.99995655 0.0069586355
128.0 83.45023 130.0 0.007695966 -0.99995494 0.0055608503
128.0 83.455795 131.0 0.007695966 -0.99995494 0.0055608503
128.0 83.44946 61.0 -0.019093225 -0.9997948 -0.006768494
128.0 83.45368 60.0 -0.018526828 -0.999805 0.006837383
128.0 172.54935 131.0 -0.020350426 0.9997701 0.0067490907
128.0 172.55054 61.0 0.019093188 0.9997948 -0.006768247
128.0 172.54631 60.0 0.018526698 0.999805 0.006838919
128.0 83.45114 146.0 -0.020090131 -0.99974966 -0.00985004
128.0 83.4522 106.0 0.019526819 -0.99976313 0.009613335
128.0 172.54898 146.0 0.021034833 0.99972796 -0.010073482
128.0 172.5495 106.0 -0.020997137 0.99973273 0.0096744
128.0 172.5416 135.0 0.009920799 0.99993646 -0.005349378
128.0 172.54495 136.0 0.00086514116 0.999998 0.0018195634
128.0 172.54312 137.0 0.00086514116 0.999998 0.0018195634
128.0 172.54614 90.0 -0.013684214 0.9999053 -0.001464169
128.0 172.54738 91.0 -0.0132208895 0.9999121 -0.0010055102
128.0 172.54839 92.0 -0.0132208895 0.9999121 -0.0010055102
128.0 172.55069 93.0 -0.011282254 0.9999213 -0.005478214
128.0 83.45393 90.0 0.013528279 -0.9999074 -0.0014901764
128.0 83.44739 55.0 -0.025174405 -0.99965847 0.0070160003
128.0 172.55261 55.0 0.025174445 0.99965847 0.0070160003
128.0 83.4527 91.0 0.013006813 -0.99991494 -0.000974983
128.0 83.45173 92.0 0.013006813 -0.99991494 -0.000974983
128.0 83.454994 62.0 0.01193265 -0.99990547 0.00683224
128.0 172.545 62.0 -0.011932674 0.99990547 0.006832053
128.0 83.44936 93.0 0.01105947 -0.9999237 -0.0055005914
128.0 83.45165 135.0 -0.0034205962 -0.9999844 -0.00441293
128.0 83.45017 117.0 -0.011591866 -0.9999259 0.0037222197
128.0 83.453896 118.0 -0.011591866 -0.9999259 0.0037222197
128.0 83.45042 136.0 0.008027396 -0.99996275 0.0031687603
128.0 172.53946 171.0 0.0044184327 0.9999744 -0.005623116
128.0 172.54509 172.0 0.0044184327 0.9999744 -0.005623116
128.0 172.5507 173.0 0.0044184327 0.9999744 -0.005623116
128.0 172.54823 169.0 0.0025303003 0.9999836 0.0051332656
128.0 172.5431 170.0 0.0025303003 0.9999836 0.0051332656
128.0 83.460556 171.0 -0.004373138 -0.9999746 -0.0056273714
128.0 83.45493 172.0 -0.004373138 -0.9999746 -0.0056273714
128.0 83.4493 173.0 -0.004373138 -0.9999746 -0.0056273714
128.0 83.45175 169.0 -0.0024911452 -0.99998367 0.005138458
128.0 83.45689 170.0 -0.0024911452 -0.99998367 0.005138458
128.0 83.45014 79.0 -0.0015039691 -0.99998575 0.0051204246
128.0 83.45526 80.0 -0.0015039691 -0.99998575 0.0051204246
128.0 83.45766 81.0 -0.0034078327 -0.9999837 -0.004580004
128.0 83.45308 82.0 -0.0034078327 -0.9999837 -0.004580004
128.0 172.54985 79.0 0.001469544 0.9999858 0.0051171044
128.0 172.54474 80.0 0.001469544 0.9999858 0.0051171044
128.0 172.54231 81.0 0.0033762194 0.99998385 -0.004575424
128.0 172.54689 82.0 0.0033762194 0.99998385 -0.004575424
128.0 172.5526 174.0 -0.0074718962 0.9999538 0.0060496344
128.0 172.54654 175.0 -0.0074718962 0.9999538 0.0060496344
128.0 172.5405 176.0 -0.0074718962 0.9999538 0.0060496344
128.0 83.44739 174.0 0.007490202 -0.9999536 0.006050454
128.0 83.453445 175.0 0.007490202 -0.9999536 0.006050454
128.0 83.459496 176.0 0.007490202 -0.9999536 0.006050454
128.0 172.55353 115.0 0.0058036777 0.9999748 0.004084607
128.0 172.54944 116.0 0.0058036777 0.9999748 0.004084607
128.0 172.54535 117.0 0.0058036777 0.9999748 0.004084607
128.0 172.54128 118.0 0.0058036777 0.9999748 0.004084607
128.0 172.54918 133.0 0.012729489 0.99989897 0.006323462
128.0 172.54285 134.0 0.012729489 0.99989897 0.006323462
128.0 172.55127 158.0 0.007925219 0.9999686 -9.868147e-06
128.0 83.448784 158.0 -0.0077594817 -0.9999699 -2.6837062e-05
128.0 83.44855 94.0 0.0036591152 -0.99999315 0.0005793687
128.0 172.55151 94.0 -0.003964249 0.999992 0.0005523579
128.0 83.45312 142.0 -0.018529486 -0.9998147 0.00521927
128.0 83.45087 78.0 0.018154679 -0.9998212 0.0052943453
128.0 172.54915 78.0 -0.018175429 0.9998208 0.0052917097
128.0 83.45656 76.0 -0.009964256 -0.99993277 -0.0059319492
128.0 83.45063 77.0 -0.009964256 -0.99993277 -0.0059319492
128.0 172.54343 76.0 0.009950412 0.9999329 -0.0059310505
128.0 172.54935 77.0 0.009950412 0.9999329 -0.0059310505
128.0 172.55083 110.0 -0.022091057 0.99973255 -0.0068400893
128.0 172.54953 142.0 0.019507192 0.9997926 0.0058551813
128.0 83.44931 122.0 -0.0032457735 -0.9999873 0.0038618906
128.0 83.45318 123.0 -0.0032457735 -0.9999873 0.0038618906
128.0 83.44988 126.0 0.01421054 -0.9998895 0.0043667112
128.0 83.45666 124.0 -0.001417421 -0.9999893 -0.0044160634
128.0 83.45224 125.0 -0.001417421 -0.9999893 -0.0044160634
128.0 83.45473 129.0 -0.010842012 -0.99993086 -0.004559412
128.0 83.45068 128.0 -0.012280205 -0.9999126 0.004895121
128.0 172.54239 129.0 0.008813633 0.9999474 -0.005238659
128.0 172.54762 130.0 0.008813633 0.9999474 -0.005238659
128.0 172.54694 128.0 0.009224418 0.99994093 0.00574514
128.0 83.44905 127.0 0.015361271 -0.9998727 -0.004315547
128.0 172.54951 127.0 -0.012477336 0.9999132 -0.0042235525
128.0 172.54854 126.0 -0.012935 0.9999009 0.0055652848
128.0 172.55109 149.0 0.0073254094 0.9999732 -2.991143e-05
128.0 172.55112 150.0 0.0073254094 0.9999732 -2.991143e-05
128.0 83.44907 149.0 -0.0067468667 -0.99997723 -6.4330816e-05
128.0 83.449005 150.0 -0.0067468667 -0.99997723 -6.4330816e-05
128.0 83.44942 102.0 0.0052674212 -0.9999861 -5.0232426e-05
128.0 83.44937 103.0 0.0052674212 -0.9999861 -5.0232426e-05
128.0 172.55081 102.0 -0.0063293013 0.99998 -0.00014261283
128.0 172.55095 103.0 -0.0063293013 0.99998 -0.00014261283
128.0 172.55128 159.0 0.0079142805 0.9999687 -2.284933e-05
128.0 172.55124 160.0 0.00783056 0.99996936 9.698062e-05
128.0 172.55113 161.0 0.00783056 0.99996936 9.698062e-05
128.0 83.44876 159.0 -0.007773609 -0.9999698 -1.0154654e-05
128.0 83.44881 160.0 -0.007705997 -0.9999703 8.703334e-05
128.0 83.4489 161.0 -0.007705997 -0.9999703 8.703334e-05
128.0 172.55045 180.0 -0.012686239 0.9998984 0.0065070675
128.0 172.54395 181.0 -0.012686239 0.9998984 0.0065070675
128.0 172.54396 182.0 -0.012113434 0.9999051 -0.0065583484
128.0 83.44954 180.0 0.012694652 -0.99989825 0.006506963
128.0 83.45605 181.0 0.012694652 -0.99989825 0.006506963
128.0 83.45603 182.0 0.012123037 -0.999905 -0.006559944
128.0 83.45544 71.0 -0.012263698 -0.9999045 -0.006372412
128.0 83.455765 70.0 -0.011939472 -0.9999085 0.006359577
128.0 172.54456 71.0 0.01225922 0.9999046 -0.006371763
128.0 172.54422 70.0 0.011934437 0.99990857 0.0063601807
128.0 172.54741 188.0 0.009405487 0.99993193 0.0069082747
128.0 172.5405 189.0 0.009405487 0.99993193 0.0069082747
128.0 83.45258 188.0 -0.009404105 -0.99993193 0.00691046
128.0 83.459496 189.0 -0.009404105 -0.99993193 0.00691046
128.0 83.458206 63.0 0.011386943 -0.999912 -0.006800852
128.0 83.45141 64.0 0.011386943 -0.999912 -0.006800852
128.0 172.54178 63.0 -0.011386793 0.999912 -0.006802297
128.0 172.54858 64.0 -0.011386793 0.999912 -0.006802297
128.0 83.44901 151.0 -0.006973577 -0.9999757 -7.34386e-05
128.0 83.44894 152.0 -0.006973577 -0.9999757 -7.34386e-05
128.0 83.44894 153.0 -0.0070800474 -0.9999749 5.2056213e-05
128.0 172.55113 151.0 0.007403121 0.9999726 -4.0499694e-05
128.0 172.55116 152.0 0.007403121 0.9999726 -4.0499694e-05
128.0 172.55118 153.0 0.0074495347 0.9999722 1.4926165e-05
128.0 83.44947 100.0 0.0051083593 -0.99998695 -6.199819e-05
128.0 83.44941 101.0 0.0051083593 -0.99998695 -6.199819e-05
128.0 83.44943 99.0 0.004960208 -0.99998766 0.000117333526
128.0 172.5507 100.0 -0.005891654 0.99998266 -0.00013032928
128.0 172.55083 101.0 -0.005891654 0.99998266 -0.00013032928
128.0 172.55075 99.0 -0.005634381 0.9999841 0.00018408518
128.0 172.54842 119.0 0.0024821325 0.99996495 -0.007994107
128.0 172.54955 121.0 0.022867732 0.99969345 0.009489956
128.0 172.55092 120.0 -0.0024911948 0.9999948 -0.0020368276
128.0 172.5472 185.0 0.013806164 0.9998821 -0.006724894
128.0 172.5486 183.0 0.013375226 0.99988836 0.0066643273
128.0 172.54193 184.0 0.013375226 0.99988836 0.0066643273
128.0 83.452805 185.0 -0.013799726 -0.99988216 -0.006727212
128.0 83.45139 183.0 -0.013369368 -0.9998884 0.006663807
128.0 83.45805 184.0 -0.013369368 -0.9998884 0.006663807
128.0 83.452034 67.0 0.014602959 -0.99987185 0.006555747
128.0 83.45698 68.0 0.014337234 -0.99987584 -0.006535323
128.0 83.45045 69.0 0.014337234 -0.99987584 -0.006535323
128.0 172.54796 67.0 -0.014606246 0.99987185 0.006556797
128.0 172.54301 68.0 -0.014340202 0.99987584 -0.006533992
128.0 172.54955 69.0 -0.014340202 0.99987584 -0.006533992
128.0 172.55086 125.0 0.008161713 0.99995965 -0.0037456746
128.0 83.45317 134.0 -0.006643929 -0.9999568 0.0065039145
128.0 83.45438 132.0 0.011223725 -0.9998809 -0.010591205
128.0 83.446686 133.0 -0.010524181 -0.99994326 0.0016631857
128.0 83.4478 84.0 -0.0023156593 -0.9999961 0.0015559116
128.0 83.449356 85.0 -0.0023156593 -0.9999961 0.0015559116
128.0 83.45319 119.0 -0.007850979 -0.99992424 -0.009479605
128.0 83.447624 121.0 -0.020531202 -0.9997454 0.009358507
128.0 83.44893 120.0 -0.0015235575 -0.99999756 -0.0015880718
128.0 83.454216 86.0 -0.0073264437 -0.99993575 0.008647519
128.0 172.5522 84.0 0.0022403402 0.99999624 0.001559362
128.0 172.55064 85.0 0.0022403402 0.99999624 0.001559362
128.0 172.5458 86.0 0.0072312327 0.99993664 0.008629128
128.0 172.54858 166.0 0.0035444647 0.99999124 -0.0022370468
128.0 172.55083 167.0 0.0035444647 0.99999124 -0.0022370468
128.0 172.53612 165.0 -0.0059786052 0.99989456 -0.013231686
128.0 83.450485 143.0 -0.01665405 -0.9998023 -0.01086225
128.0 83.449455 144.0 -0.004977613 -0.99998754 -0.00036427676
128.0 83.44909 145.0 -0.004977613 -0.99998754 -0.00036427676
128.0 83.44923 107.0 0.0054097027 -0.99998534 -0.000109293724
128.0 83.44911 108.0 0.0054097027 -0.99998534 -0.000109293724
128.0 83.449005 109.0 0.0054097027 -0.99998534 -0.000109293724
128.0 172.54324 168.0 -0.018244615 0.9997725 0.011052124
128.0 83.451416 166.0 -0.003472623 -0.9999915 -0.0022342156
128.0 83.44918 167.0 -0.003472623 -0.9999915 -0.0022342156
128.0 83.46389 165.0 0.0060812044 -0.9998938 -0.013244417
128.0 83.456696 168.0 0.018291106 -0.99977154 0.0110599715
128.0 83.44925 83.0 -0.019001625 -0.9998067 0.0050439616
128.0 172.55296 197.0 0.0 0.9999736 0.007266111
128.0 172.5457 198.0 0.0 0.9999736 0.007266111
128.0 172.53844 199.0 0.0 0.9999736 0.007266111
128.0 83.44704 197.0 0.0 -0.9999736 0.0072661336
128.0 83.4543 198.0 0.0 -0.9999736 0.0072661336
128.0 83.46156 199.0 0.0 -0.9999736 0.0072661336
128.0 172.55072 83.0 0.018948402 0.9998078 0.0050382097
128.0 83.46184 53.0 -0.0 -0.99997324 -0.0073199365
128.0 83.45452 54.0 -0.0 -0.99997324 -0.0073199365
128.0 172.53816 53.0 0.0 0.99997324 -0.0073199137
128.0 172.54547 54.0 0.0 0.99997324 -0.0073199137
128.0 172.54922 122.0 0.009641397 0.9999532 0.0007729299
128.0 172.54845 123.0 0.009641397 0.9999532 0.0007729299
128.0 172.54768 124.0 0.009641397 0.9999532 0.0007729299
128.0 172.54683 132.0 -0.021488894 0.9997487 -0.006381307
128.0 172.5489 143.0 0.016982405 0.9997992 -0.010639044
128.0 172.55081 144.0 0.0059023327 0.99998254 -0.00024949625
128.0 172.55106 145.0 0.0059023327 0.99998254 -0.00024949625
128.0 172.5501 109.0 -0.019053467 0.99975395 0.011357364
128.0 172.5511 107.0 -0.006850186 0.9999765 5.568262e-05
128.0 172.55106 108.0 -0.006850186 0.9999765 5.568262e-05
128.0 172.54544 179.0 0.017711515 0.99982333 -0.0062942915
128.0 83.45457 179.0 -0.017695883 -0.9998236 -0.0062958496
128.0 83.45007 74.0 0.015588896 -0.9998592 -0.0062080445
128.0 83.44931 72.0 0.015836243 -0.99985605 0.006093889
128.0 83.45541 73.0 0.015836243 -0.99985605 0.006093889
128.0 172.54991 74.0 -0.0155965015 0.9998591 -0.0062064915
128.0 172.55069 72.0 -0.015844768 0.9998559 0.0060930275
128.0 172.5446 73.0 -0.015844768 0.9998559 0.0060930275
128.0 83.44889 154.0 -0.0071633407 -0.99997437 -4.6031273e-05
128.0 83.449486 98.0 0.0047835335 -0.99998856 -8.3292085e-05
128.0 172.5512 154.0 0.00747854 0.99997205 -1.9097168e-05
128.0 172.55063 98.0 -0.005338363 0.99998575 -0.00014641602
128.0 172.55096 147.0 0.0071516195 0.9999744 -0.00011462693
128.0 172.55107 148.0 0.0071516195 0.9999744 -0.00011462693
128.0 83.4492 147.0 -0.0064464496 -0.9999792 -0.00014095269
128.0 83.44906 148.0 -0.0064464496 -0.9999792 -0.00014095269
128.0 83.44935 104.0 0.0053177187 -0.9999859 -3.42383e-05
128.0 83.44931 105.0 0.0053177187 -0.9999859 -3.42383e-05
128.0 172.55096 104.0 -0.006679795 0.9999777 -0.00010523707
128.0 172.55106 105.0 -0.006679795 0.9999777 -0.00010523707
128.0 172.55125 156.0 0.007641159 0.9999708 -8.642399e-05
128.0 172.5512 155.0 0.0075315186 0.9999716 4.4508895e-05
128.0 83.44881 156.0 -0.0074039763 -0.9999726 -0.00010309395
128.0 83.44888 155.0 -0.00726041 -0.99997365 6.916259e-05
128.0 83.44634 88.0 -0.015644876 -0.9998738 -0.0027590562
128.0 83.44933 96.0 0.0042043924 -0.9999912 -1.8000776e-05
128.0 83.44941 97.0 0.004479745 -0.9999899 0.00029110615
128.0 172.55074 96.0 -0.004603714 0.9999894 -5.0343475e-05
128.0 172.55069 97.0 -0.004950381 0.99998766 0.0003348351
128.0 83.450584 110.0 0.010784683 -0.9999416 -0.00069697335
128.0 83.44989 111.0 0.010784683 -0.9999416 -0.00069697335
128.0 83.449196 112.0 0.010784683 -0.9999416 -0.00069697335
128.0 83.45168 87.0 -0.013960698 -0.9998856 -0.005821086
128.0 83.45031 89.0 0.01816359 -0.9998203 0.005432428
128.0 172.55354 88.0 0.0155388545 0.9998755 -0.0027549062
128.0 172.54822 87.0 0.013868459 0.99988705 -0.0057964236
128.0 172.54985 89.0 -0.018299516 0.99981797 0.005403292
128.0 165.0 207.14525 0.0 0.15946674 0.9872033
128.0 166.0 206.9837 0.0 0.15946674 0.9872033
128.0 167.0 206.82217 0.0 0.15946674 0.9872033
128.0 89.0 206.82219 0.0 -0.15945883 0.98720455
128.0 90.0 206.98372 0.0 -0.15945883 0.98720455
128.0 91.0 207.14525 0.0 -0.15945883 0.98720455
128.0 84.0 202.06642 -0.06022117 -0.89594245 0.44006875
128.0 85.0 203.82246 0.07739232 -0.7896499 0.6086571
128.0 172.0 202.0664 0.060214244 0.8959492 0.440056
128.0 171.0 203.82246 -0.077393994 0.7896681 0.6086333
128.0 168.0 206.34999 -0.059129898 0.46332523 0.88421345
128.0 169.0 205.826 -0.059129898 0.46332523 0.88421345
128.0 170.0 205.00095 0.040515903 0.681175 0.7309987
128.0 87.0 205.82603 0.059121024 -0.46330684 0.88422364
128.0 88.0 206.35 0.059121024 -0.46330684 0.88422364
128.0 86.0 205.00093 -0.0405135 -0.68116665 0.73100656
128.0 166.0 57.41724 -0.0061989822 -0.9999526 0.007507453
128.0 90.0 182.74535 -0.006231604 0.9999524 -0.0075121964
128.0 166.0 142.74646 -0.0006406165 -0.99997115 -0.007571229
128.0 166.0 143.12486 -0.00062036683 -0.9999739 0.007198164
128.0 166.0 97.31643 0.0019385245 -0.9999687 0.007668775
128.0 166.0 96.92611 0.0019367856 -0.9999716 -0.0072789225
128.0 90.0 142.64005 -0.00139788 0.99996954 -0.0076785134
128.0 90.0 143.09583 -0.0013742541 0.999967 0.008007258
128.0 90.0 97.33339 -0.0022436285 0.9999683 0.0076415576
128.0 90.0 96.96929 -0.0022672615 0.9999655 -0.007990454
128.0 166.0 57.20094 -0.008449793 -0.99993485 -0.007674305
128.0 166.0 131.8463 -0.00791022 -0.99993855 -0.007765892
128.0 90.0 131.71742 0.0064990316 0.99994856 -0.0077874777
128.0 90.0 76.76735 -0.0019360372 0.99992275 -0.012276793
128.0 90.0 182.9575 -0.0084869675 0.99993455 0.007674379
128.0 166.0 76.753975 0.0017060585 -0.9999226 -0.012324184
128.0 166.0 163.38414 -0.0017979074 -0.9999232 0.012259947
128.0 90.0 163.43324 0.00081146124 0.9999225 0.012422763
128.0 166.0 131.87521 -0.007915048 -0.999939 0.0076978416
128.0 166.0 82.65342 0.00763278 -0.99994403 0.007322771
128.0 166.0 157.49055 -0.0075970027 -0.99994457 -0.00729341
128.0 90.0 157.553 0.008754294 0.9999058 -0.010566395
128.0 90.0 131.83379 0.0064960592 0.9999494 0.0076829297
128.0 90.0 62.991634 0.0070830784 0.999948 -0.007332058
128.0 90.0 63.107338 0.0070830346 0.999948 0.0073308414
128.0 166.0 62.988792 -0.0071214945 -0.9999477 -0.0073383874
128.0 166.0 63.106964 -0.007116429 -0.9999478 0.0073354887
128.0 166.0 177.16705 0.0070906826 -0.99994797 0.007333188
128.0 166.0 177.04987 0.007090617 -0.999948 -0.0073299594
128.0 90.0 177.17165 -0.007221129 0.99994695 0.007348753
128.0 90.0 177.0592 -0.007204486 0.9999471 -0.007342486
128.0 166.0 102.723015 0.0067016263 -0.9999474 0.0077597513
128.0 166.0 102.57001 0.006731709 -0.9999476 -0.007712777
128.0 166.0 137.22733 -0.0045458693 -0.9999601 -0.0076843165
128.0 166.0 137.49591 -0.0045093372 -0.99996066 0.0076411315
128.0 90.0 102.76902 -0.0070587173 0.99994504 0.0077529084
128.0 90.0 102.61279 -0.007147919 0.9999447 -0.007716102
128.0 90.0 137.0921 0.0029277038 0.9999657 -0.0077404333
128.0 90.0 137.46385 0.0029333446 0.99996626 0.007669054
128.0 90.0 77.05348 -0.001936396 0.99997115 0.0073426664
128.0 166.0 82.61038 0.0097162975 -0.9999256 -0.0073695327
128.0 166.0 77.057785 0.001733949 -0.99997133 0.0073709595
128.0 166.0 157.50693 -0.009701718 -0.99992615 0.0073203305
128.0 166.0 163.09499 -0.0017988178 -0.9999715 -0.0073312474
128.0 90.0 191.16779 0.0 0.999976 -0.0069326526
128.0 90.0 157.70908 0.006018803 0.99995387 0.0074885003
128.0 90.0 163.09264 0.000932458 0.999972 -0.0074299346
128.0 166.0 191.19121 -0.0 -0.99996877 -0.007902639
128.0 166.0 48.991764 0.0 -0.999976 0.006931185
128.0 90.0 48.966267 0.0 0.99996877 0.007901319
128.0 109.0 191.36642 0.0 0.0 -1.0
128.0 110.0 191.36642 0.0 0.0 -1.0
128.0 111.0 191.36642 0.0 0.0 -1.0
128.0 142.0 191.36642 0.0 0.0 -1.0
128.0 143.0 191.36642 0.0 0.0 -1.0
128.0 147.0 191.36642 -0.0 0.0 -1.0
128.0 148.0 191.36642 -0.0 0.0 -1.0
128.0 98.0 191.36642 0.0 0.0 -1.0
128.0 99.0 191.36642 0.0 0.0 -1.0
128.0 164.0 191.36642 0.0 0.0 -1.0
128.0 96.0 191.36642 0.0 -0.0 -1.0
128.0 97.0 191.36642 0.0 -0.0 -1.0
128.0 163.0 191.36642 0.0 0.0 -1.0
128.0 159.0 191.36642 0.0 -0.0 -1.0
128.0 161.0 191.36642 -0.0 0.0 -1.0
128.0 162.0 191.36642 -0.0 0.0 -1.0
128.0 156.0 191.36642 0.0 -0.0 -1.0
128.0 102.0 191.36642 0.0 0.0 -1.0
128.0 165.0 191.36642 -0.0 0.0 -1.0
128.0 146.0 191.36642 -0.0 0.0 -1.0
128.0 117.0 191.36642 -0.0 0.0 -1.0
128.0 91.0 191.36642 0.0 0.0 -1.0
128.0 92.0 191.36642 0.0 0.0 -1.0
128.0 100.0 191.36642 0.0 -0.0 -1.0
128.0 106.0 191.36642 0.0 -0.0 -1.0
128.0 107.0 191.36642 0.0 -0.0 -1.0
128.0 149.0 191.36642 0.0 0.0 -1.0
128.0 157.0 191.36642 -0.0 0.0 -1.0
128.0 158.0 191.36642 -0.0 0.0 -1.0
128.0 103.0 191.36642 0.0 0.0 -1.0
128.0 112.0 191.36642 0.0 0.0 -1.0
128.0 113.0 191.36642 0.0 0.0 -1.0
128.0 150.0 191.36642 0.0 -0.0 -1.0
128.0 160.0 191.36642 0.0 0.0 -1.0
128.0 152.0 191.36642 0.0 -0.0 -1.0
128.0 153.0 191.36642 0.0 0.0 -1.0
128.0 154.0 191.36642 -0.0 0.0 -1.0
128.0 155.0 191.36642 -0.0 0.0 -1.0
128.0 144.0 191.36642 0.0 0.0 -1.0
128.0 145.0 191.36642 0.0 0.0 -1.0
128.0 104.0 191.36642 -0.0 0.0 -1.0
128.0 151.0 191.36642 0.0 0.0 -1.0
128.0 105.0 191.36642 0.0 0.0 -1.0
128.0 118.0 191.36642 0.0 0.0 -1.0
128.0 93.0 191.36642 0.0 0.0 -1.0
128.0 94.0 191.36642 0.0 0.0 -1.0
128.0 114.0 191.36642 0.0 0.0 -1.0
128.0 101.0 191.36642 -0.0 0.0 -1.0
128.0 115.0 191.36642 0.0 0.0 -1.0
128.0 116.0 191.36642 0.0 0.0 -1.0
128.0 95.0 191.36642 0.0 0.0 -1.0
128.0 121.0 191.36642 0.0 0.0 -1.0
128.0 122.0 191.36642 0.0 0.0 -1.0
128.0 134.0 191.36642 0.0 0.0 -1.0
128.0 135.0 191.36642 0.0 0.0 -1.0
128.0 127.0 191.36642 0.0 -0.0 -1.0
128.0 126.0 191.36642 0.0 0.0 -1.0
128.0 130.0 191.36642 0.0 -0.0 -1.0
128.0 128.0 191.36642 0.0 0.0 -1.0
128.0 123.0 191.36642 0.0 0.0 -1.0
128.0 124.0 191.36642 0.0 0.0 -1.0
128.0 136.0 191.36642 0.0 0.0 -1.0
128.0 137.0 191.36642 0.0 0.0 -1.0
128.0 129.0 191.36642 0.0 0.0 -1.0
128.0 131.0 191.36642 0.0 0.0 -1.0
128.0 119.0 191.36642 0.0 -0.0 -1.0
128.0 120.0 191.36642 0.0 -0.0 -1.0
128.0 132.0 191.36642 0.0 0.0 -1.0
128.0 133.0 191.36642 0.0 0.0 -1.0
128.0 125.0 191.36642 -0.0 0.0 -1.0
128.0 108.0 191.36642 0.0 0.0 -1.0
128.0 139.0 191.36642 0.0 0.0 -1.0
128.0 140.0 191.36642 -0.0 0.0 -1.0
128.0 141.0 191.36642 -0.0 0.0 -1.0
128.0 138.0 191.36642 0.0 0.0 -1.0
128.0 84.0 52.209694 0.0 -0.71124953 -0.7029396
128.0 85.0 51.197872 0.01477014 -0.70702964 -0.70702964
128.0 86.0 50.197872 0.01477014 -0.70702964 -0.70702964
128.0 87.0 49.197872 0.01477014 -0.70702964 -0.70702964
128.0 172.0 52.209698 0.0 0.71124953 -0.7029396
128.0 169.0 49.197876 0.014771653 0.70702964 -0.70702964
128.0 170.0 50.197876 0.014771653 0.70702964 -0.70702964
128.0 171.0 51.197876 0.014771653 0.70702964 -0.70702964
128.0 166.0 48.791985 0.0 0.0 -1.0
128.0 167.0 48.791985 0.0 0.0 -1.0
128.0 168.0 48.791985 0.0 0.0 -1.0
128.0 88.0 48.791985 0.0 0.0 -1.0
128.0 89.0 48.791985 0.0 0.0 -1.0
128.0 90.0 48.791985 0.0 0.0 -1.0
128.0 150.0 207.20801 0.0 0.0 1.0
128.0 112.0 207.20801 -0.0 0.0 1.0
128.0 111.0 207.20802 0.0 0.0 1.0
128.0 153.0 207.20801 0.0 0.0 1.0
128.0 148.0 207.20801 -0.0 0.0 1.0
128.0 149.0 207.20801 -0.0 0.0 1.0
128.0 108.0 207.20801 0.0 0.0 1.0
128.0 154.0 207.20801 0.0 0.0 1.0
128.0 155.0 207.20801 0.0 0.0 1.0
128.0 96.0 207.20801 0.0 0.0 1.0
128.0 97.0 207.20801 0.0 0.0 1.0
128.0 116.0 207.20801 0.0 0.0 1.0
128.0 117.0 207.20801 0.0 0.0 1.0
128.0 118.0 207.20801 0.0 -0.0 1.0
128.0 151.0 207.20801 0.0 0.0 1.0
128.0 100.0 207.20801 0.0 0.0 1.0
128.0 101.0 207.20801 0.0 0.0 1.0
128.0 113.0 207.20801 0.0 0.0 1.0
128.0 159.0 207.20801 0.0 0.0 1.0
128.0 160.0 207.20801 0.0 0.0 1.0
128.0 98.0 207.20801 0.0 -0.0 1.0
128.0 114.0 207.20801 0.0 0.0 1.0
128.0 105.0 207.20801 0.0 -0.0 1.0
128.0 106.0 207.20801 0.0 -0.0 1.0
128.0 104.0 207.20801 0.0 0.0 1.0
128.0 139.0 207.20801 0.0 0.0 1.0
128.0 156.0 207.20801 0.0 0.0 1.0
128.0 157.0 207.20801 0.0 0.0 1.0
128.0 158.0 207.20801 0.0 0.0 1.0
128.0 107.0 207.20801 -0.0 0.0 1.0
128.0 99.0 207.20801 -0.0 0.0 1.0
128.0 94.0 207.20802 0.0 -0.0 1.0
128.0 95.0 207.20801 0.0 -0.0 1.0
128.0 115.0 207.20801 0.0 0.0 1.0
128.0 147.0 207.20801 0.0 0.0 1.0
128.0 145.0 207.20801 0.0 0.0 1.0
128.0 146.0 207.20801 0.0 0.0 1.0
128.0 141.0 207.20801 0.0 0.0 1.0
128.0 92.0 207.20802 0.0 0.0 1.0
128.0 93.0 207.20802 0.0 0.0 1.0
128.0 142.0 207.20801 0.0 -0.0 1.0
128.0 161.0 207.20801 0.0 -0.0 1.0
128.0 162.0 207.20801 0.0 -0.0 1.0
128.0 163.0 207.20801 -0.0 0.0 1.0
128.0 164.0 207.20801 -0.0 0.0 1.0
128.0 120.0 207.20801 0.0 0.0 1.0
128.0 144.0 207.20801 0.0 0.0 1.0
128.0 143.0 207.20801 0.0 0.0 1.0
128.0 140.0 207.20801 -0.0 0.0 1.0
128.0 123.0 207.20802 0.0 0.0 1.0
128.0 122.0 207.20801 0.0 0.0 1.0
128.0 109.0 207.20801 0.0 0.0 1.0
128.0 110.0 207.20801 0.0 0.0 1.0
128.0 126.0 207.20801 0.0 -0.0 1.0
128.0 137.0 207.20801 0.0 0.0 1.0
128.0 138.0 207.20801 0.0 0.0 1.0
128.0 125.0 207.20801 0.0 0.0 1.0
128.0 121.0 207.20802 0.0 0.0 1.0
128.0 132.0 207.20801 0.0 0.0 1.0
128.0 119.0 207.20801 -0.0 0.0 1.0
128.0 127.0 207.20801 -0.0 0.0 1.0
128.0 124.0 207.20801 0.0 0.0 1.0
128.0 135.0 207.20801 0.0 0.0 1.0
128.0 131.0 207.20801 0.0 0.0 1.0
128.0 152.0 207.20801 0.0 0.0 1.0
128.0 133.0 207.20801 0.0 -0.0 1.0
128.0 130.0 207.20802 0.0 0.0 1.0
128.0 129.0 207.20801 0.0 0.0 1.0
128.0 134.0 207.20801 -0.0 0.0 1.0
128.0 128.0 207.20801 0.0 0.0 1.0
128.0 103.0 207.20801 0.0 -0.0 1.0
128.0 136.0 207.20802 0.0 0.0 1.0
128.0 102.0 207.20801 0.0 0.0 1.0
