ply
format ascii 1.0
element vertex 832
property float x
property float y
property float z
end_header
128.0 165.89914 207.0
128.0 90.100784 207.0
128.0 83.96737 202.0
128.0 84.45855 203.0
128.0 85.13684 204.0
128.0 172.03261 202.0
128.0 171.54146 203.0
128.0 170.86316 204.0
128.0 168.66794 206.0
128.0 170.001 205.0
128.0 87.33201 206.0
128.0 85.99899 205.0
128.0 83.71815 201.0
128.0 83.56116 200.0
128.0 172.28185 201.0
128.0 172.43884 200.0
128.0 89.997665 57.0
128.0 89.986694 55.0
128.0 89.98805 56.0
128.0 89.99435 58.0
128.0 89.987144 59.0
128.0 166.01062 123.0
128.0 166.0057 124.0
128.0 166.01334 125.0
128.0 89.9882 123.0
128.0 89.99283 124.0
128.0 166.00438 58.0
128.0 166.01189 59.0
128.0 166.00075 183.0
128.0 166.01077 184.0
128.0 166.01309 185.0
128.0 166.01399 181.0
128.0 166.00679 182.0
128.0 89.986885 181.0
128.0 89.9944 182.0
128.0 166.00586 126.0
128.0 89.9872 125.0
128.0 89.99486 126.0
128.0 166.00896 84.0
128.0 166.0086 85.0
128.0 166.00864 155.0
128.0 166.00902 156.0
128.0 166.01056 86.0
128.0 166.01323 141.0
128.0 166.00565 142.0
128.0 165.9991 143.0
128.0 166.0063 144.0
128.0 166.0135 145.0
128.0 166.00525 98.0
128.0 166.01291 99.0
128.0 166.01402 95.0
128.0 166.00674 96.0
128.0 165.99947 97.0
128.0 166.01016 121.0
128.0 166.011 110.0
128.0 166.00824 109.0
128.0 166.00613 111.0
128.0 166.01392 112.0
128.0 89.98899 110.0
128.0 89.9922 109.0
128.0 89.99537 111.0
128.0 89.98759 112.0
128.0 89.990654 121.0
128.0 89.987404 141.0
128.0 89.99509 142.0
128.0 90.00077 143.0
128.0 89.99276 144.0
128.0 89.98475 145.0
128.0 89.9949 98.0
128.0 89.98727 99.0
128.0 89.98426 95.0
128.0 89.992256 96.0
128.0 90.000244 97.0
128.0 166.00645 127.0
128.0 166.01402 128.0
128.0 166.01126 113.0
128.0 89.993546 127.0
128.0 89.98604 128.0
128.0 89.98696 113.0
128.0 166.00922 56.0
128.0 166.00154 57.0
128.0 166.01566 55.0
128.0 89.98103 85.0
128.0 166.01434 130.0
128.0 166.00658 131.0
128.0 166.01024 129.0
128.0 89.986626 130.0
128.0 89.994415 131.0
128.0 89.989006 129.0
128.0 166.0184 93.0
128.0 166.01913 94.0
128.0 89.99058 76.0
128.0 89.99967 183.0
128.0 89.992 184.0
128.0 89.98432 185.0
128.0 166.01115 114.0
128.0 166.01865 146.0
128.0 166.018 147.0
128.0 89.98852 114.0
128.0 166.0093 76.0
128.0 166.01979 165.0
128.0 166.00755 164.0
128.0 166.01099 154.0
128.0 89.981834 86.0
128.0 89.980675 165.0
128.0 89.99296 164.0
128.0 166.01825 53.0
128.0 166.01665 54.0
128.0 89.98359 186.0
128.0 89.98199 187.0
128.0 89.98038 188.0
128.0 89.994995 83.0
128.0 89.9845 84.0
128.0 166.01472 106.0
128.0 166.00977 107.0
128.0 166.00206 108.0
128.0 166.00096 132.0
128.0 166.00865 133.0
128.0 166.01636 134.0
128.0 89.98442 80.0
128.0 166.00253 83.0
128.0 166.00357 157.0
128.0 89.98359 156.0
128.0 89.994156 157.0
128.0 166.01566 80.0
128.0 89.9863 106.0
128.0 89.989426 107.0
128.0 89.99713 108.0
128.0 89.998726 132.0
128.0 89.99104 133.0
128.0 89.98335 134.0
128.0 89.98705 66.0
128.0 166.01291 66.0
128.0 89.9854 61.0
128.0 89.99273 62.0
128.0 90.00006 63.0
128.0 89.993454 64.0
128.0 89.98612 65.0
128.0 166.0146 61.0
128.0 166.00726 62.0
128.0 165.99992 63.0
128.0 166.00655 64.0
128.0 166.01389 65.0
128.0 166.0061 178.0
128.0 166.01344 179.0
128.0 166.01503 175.0
128.0 166.00769 176.0
128.0 166.00037 177.0
128.0 89.99391 178.0
128.0 89.986565 179.0
128.0 89.98488 175.0
128.0 89.992226 176.0
128.0 89.999565 177.0
128.0 166.01286 105.0
128.0 166.00215 103.0
128.0 166.0099 104.0
128.0 166.01212 101.0
128.0 166.0044 102.0
128.0 166.01532 100.0
128.0 166.0157 135.0
128.0 166.00943 136.0
128.0 166.00174 137.0
128.0 166.00385 138.0
128.0 166.01149 139.0
128.0 166.01756 140.0
128.0 89.98719 105.0
128.0 89.99821 103.0
128.0 89.990456 104.0
128.0 89.98756 101.0
128.0 89.99527 102.0
128.0 89.985275 100.0
128.0 89.9838 135.0
128.0 89.99155 136.0
128.0 89.99929 137.0
128.0 89.99589 138.0
128.0 89.98822 139.0
128.0 89.98089 140.0
128.0 166.01492 174.0
128.0 89.98512 174.0
128.0 89.9824 71.0
128.0 89.981865 72.0
128.0 89.98975 93.0
128.0 89.98328 94.0
128.0 89.98324 90.0
128.0 89.98919 91.0
128.0 89.99514 92.0
128.0 166.01755 71.0
128.0 166.01807 72.0
128.0 166.01819 168.0
128.0 166.01765 169.0
128.0 89.982414 146.0
128.0 89.98896 147.0
128.0 89.9955 148.0
128.0 89.98947 149.0
128.0 89.98204 168.0
128.0 89.98253 169.0
128.0 166.01471 122.0
128.0 89.986496 122.0
128.0 89.98277 87.0
128.0 89.983154 88.0
128.0 89.98353 89.0
128.0 166.01657 160.0
128.0 89.984 154.0
128.0 89.98161 155.0
128.0 89.98526 151.0
128.0 89.984764 152.0
128.0 89.98427 153.0
128.0 89.987465 60.0
128.0 166.01265 60.0
128.0 166.01149 180.0
128.0 89.98855 180.0
128.0 89.989204 54.0
128.0 89.98224 52.0
128.0 89.98645 53.0
128.0 166.01135 186.0
128.0 166.01288 187.0
128.0 166.01709 188.0
128.0 89.981606 73.0
128.0 89.98092 74.0
128.0 89.98024 75.0
128.0 166.01833 73.0
128.0 166.01898 74.0
128.0 166.01965 75.0
128.0 166.01913 166.0
128.0 166.01846 167.0
128.0 89.98123 166.0
128.0 89.98184 167.0
128.0 89.98302 69.0
128.0 89.98266 70.0
128.0 166.01694 69.0
128.0 166.0173 70.0
128.0 166.01738 170.0
128.0 166.01701 171.0
128.0 89.982765 170.0
128.0 89.98309 171.0
128.0 89.98321 172.0
128.0 89.98346 173.0
128.0 166.00952 115.0
128.0 166.0031 116.0
128.0 166.00519 118.0
128.0 166.00539 117.0
128.0 89.98999 115.0
128.0 89.996315 116.0
128.0 89.994064 118.0
128.0 89.99464 117.0
128.0 166.00584 119.0
128.0 166.01219 120.0
128.0 89.99378 119.0
128.0 89.98749 120.0
128.0 166.01979 52.0
128.0 166.01677 91.0
128.0 166.01767 92.0
128.0 166.01736 148.0
128.0 166.01656 149.0
128.0 166.01254 87.0
128.0 166.01299 88.0
128.0 166.01703 89.0
128.0 166.01244 153.0
128.0 166.0176 151.0
128.0 166.01358 152.0
128.0 166.01364 90.0
128.0 166.01369 150.0
128.0 89.98423 150.0
128.0 166.01689 172.0
128.0 166.01662 173.0
128.0 166.01656 67.0
128.0 166.01683 68.0
128.0 89.9884 81.0
128.0 89.99577 82.0
128.0 90.00039 77.0
128.0 89.99305 78.0
128.0 89.98571 79.0
128.0 166.01187 81.0
128.0 166.0045 82.0
128.0 165.99957 77.0
128.0 166.00694 78.0
128.0 166.01431 79.0
128.0 166.00362 158.0
128.0 166.01093 159.0
128.0 166.01537 161.0
128.0 166.00803 162.0
128.0 166.0007 163.0
128.0 89.98497 189.0
128.0 89.991905 190.0
128.0 89.99884 191.0
128.0 89.99782 158.0
128.0 89.99033 159.0
128.0 89.98284 160.0
128.0 89.98445 161.0
128.0 89.99188 162.0
128.0 89.99931 163.0
128.0 166.01732 189.0
128.0 166.00941 190.0
128.0 166.00151 191.0
128.0 166.00006 49.0
128.0 166.00699 50.0
128.0 166.01392 51.0
128.0 89.99973 49.0
128.0 89.99183 50.0
128.0 89.98393 51.0
128.0 89.983406 67.0
128.0 89.98314 68.0
128.0 84.207245 52.0
128.0 87.197876 49.0
128.0 86.197876 50.0
128.0 85.197876 51.0
128.0 171.79276 52.0
128.0 168.80212 49.0
128.0 169.80212 50.0
128.0 170.80212 51.0
128.0 172.54503 187.0
128.0 172.54756 186.0
128.0 83.45496 187.0
128.0 83.45242 186.0
128.0 83.45597 65.0
128.0 83.453316 66.0
128.0 172.54402 65.0
128.0 172.54668 66.0
128.0 172.54626 112.0
128.0 172.54893 113.0
128.0 172.5516 114.0
128.0 172.54941 111.0
128.0 172.54785 162.0
128.0 83.45226 162.0
128.0 83.4563 139.0
128.0 83.45252 137.0
128.0 83.45371 138.0
128.0 83.45453 140.0
128.0 83.44921 141.0
128.0 172.54716 140.0
128.0 172.54396 138.0
128.0 172.54753 139.0
128.0 172.55034 141.0
128.0 172.54805 163.0
128.0 172.54137 164.0
128.0 83.451904 163.0
128.0 83.458595 164.0
128.0 172.54378 177.0
128.0 172.54991 178.0
128.0 83.45622 177.0
128.0 83.45008 178.0
128.0 83.45483 75.0
128.0 172.54517 75.0
128.0 83.44666 116.0
128.0 83.448494 114.0
128.0 83.44632 115.0
128.0 83.45047 113.0
128.0 172.5464 193.0
128.0 172.53937 194.0
128.0 172.54208 195.0
128.0 172.5492 196.0
128.0 172.5479 192.0
128.0 83.45358 193.0
128.0 83.46063 194.0
128.0 83.45792 195.0
128.0 83.450806 196.0
128.0 83.4521 192.0
128.0 172.5513 157.0
128.0 83.44877 157.0
128.0 172.54399 190.0
128.0 172.55093 191.0
128.0 83.449135 95.0
128.0 172.55093 95.0
128.0 83.456 190.0
128.0 83.44905 191.0
128.0 83.4599 58.0
128.0 83.45306 59.0
128.0 83.450386 56.0
128.0 83.457344 57.0
128.0 172.5401 58.0
128.0 172.54694 59.0
128.0 172.5496 56.0
128.0 172.54265 57.0
128.0 83.45023 130.0
128.0 83.455795 131.0
128.0 83.44946 61.0
128.0 83.45368 60.0
128.0 172.54935 131.0
128.0 172.55054 61.0
128.0 172.54631 60.0
128.0 83.45114 146.0
128.0 83.4522 106.0
128.0 172.54898 146.0
128.0 172.5495 106.0
128.0 172.5416 135.0
128.0 172.54495 136.0
128.0 172.54312 137.0
128.0 172.54614 90.0
128.0 172.54738 91.0
128.0 172.54839 92.0
128.0 172.55069 93.0
128.0 83.45393 90.0
128.0 83.44739 55.0
128.0 172.55261 55.0
128.0 83.4527 91.0
128.0 83.45173 92.0
128.0 83.454994 62.0
128.0 172.545 62.0
128.0 83.44936 93.0
128.0 83.45165 135.0
128.0 83.45017 117.0
128.0 83.453896 118.0
128.0 83.45042 136.0
128.0 172.53946 171.0
128.0 172.54509 172.0
128.0 172.5507 173.0
128.0 172.54823 169.0
128.0 172.5431 170.0
128.0 83.460556 171.0
128.0 83.45493 172.0
128.0 83.4493 173.0
128.0 83.45175 169.0
128.0 83.45689 170.0
128.0 83.45014 79.0
128.0 83.45526 80.0
128.0 83.45766 81.0
128.0 83.45308 82.0
128.0 172.54985 79.0
128.0 172.54474 80.0
128.0 172.54231 81.0
128.0 172.54689 82.0
128.0 172.5526 174.0
128.0 172.54654 175.0
128.0 172.5405 176.0
128.0 83.44739 174.0
128.0 83.453445 175.0
128.0 83.459496 176.0
128.0 172.55353 115.0
128.0 172.54944 116.0
128.0 172.54535 117.0
128.0 172.54128 118.0
128.0 172.54918 133.0
128.0 172.54285 134.0
128.0 172.55127 158.0
128.0 83.448784 158.0
128.0 83.44855 94.0
128.0 172.55151 94.0
128.0 83.45312 142.0
128.0 83.45087 78.0
128.0 172.54915 78.0
128.0 83.45656 76.0
128.0 83.45063 77.0
128.0 172.54343 76.0
128.0 172.54935 77.0
128.0 172.55083 110.0
128.0 172.54953 142.0
128.0 83.44931 122.0
128.0 83.45318 123.0
128.0 83.44988 126.0
128.0 83.45666 124.0
128.0 83.45224 125.0
128.0 83.45473 129.0
128.0 83.45068 128.0
128.0 172.54239 129.0
128.0 172.54762 130.0
128.0 172.54694 128.0
128.0 83.44905 127.0
128.0 172.54951 127.0
128.0 172.54854 126.0
128.0 172.55109 149.0
128.0 172.55112 150.0
128.0 83.44907 149.0
128.0 83.449005 150.0
128.0 83.44942 102.0
128.0 83.44937 103.0
128.0 172.55081 102.0
128.0 172.55095 103.0
128.0 172.55128 159.0
128.0 172.55124 160.0
128.0 172.55113 161.0
128.0 83.44876 159.0
128.0 83.44881 160.0
128.0 83.4489 161.0
128.0 172.55045 180.0
128.0 172.54395 181.0
128.0 172.54396 182.0
128.0 83.44954 180.0
128.0 83.45605 181.0
128.0 83.45603 182.0
128.0 83.45544 71.0
128.0 83.455765 70.0
128.0 172.54456 71.0
128.0 172.54422 70.0
128.0 172.54741 188.0
128.0 172.5405 189.0
128.0 83.45258 188.0
128.0 83.459496 189.0
128.0 83.458206 63.0
128.0 83.45141 64.0
128.0 172.54178 63.0
128.0 172.54858 64.0
128.0 83.44901 151.0
128.0 83.44894 152.0
128.0 83.44894 153.0
128.0 172.55113 151.0
128.0 172.55116 152.0
128.0 172.55118 153.0
128.0 83.44947 100.0
128.0 83.44941 101.0
128.0 83.44943 99.0
128.0 172.5507 100.0
128.0 172.55083 101.0
128.0 172.55075 99.0
128.0 172.54842 119.0
128.0 172.54955 121.0
128.0 172.55092 120.0
128.0 172.5472 185.0
128.0 172.5486 183.0
128.0 172.54193 184.0
128.0 83.452805 185.0
128.0 83.45139 183.0
128.0 83.45805 184.0
128.0 83.452034 67.0
128.0 83.45698 68.0
128.0 83.45045 69.0
128.0 172.54796 67.0
128.0 172.54301 68.0
128.0 172.54955 69.0
128.0 172.55086 125.0
128.0 83.45317 134.0
128.0 83.45438 132.0
128.0 83.446686 133.0
128.0 83.4478 84.0
128.0 83.449356 85.0
128.0 83.45319 119.0
128.0 83.447624 121.0
128.0 83.44893 120.0
128.0 83.454216 86.0
128.0 172.5522 84.0
128.0 172.55064 85.0
128.0 172.5458 86.0
128.0 172.54858 166.0
128.0 172.55083 167.0
128.0 172.53612 165.0
128.0 83.450485 143.0
128.0 83.449455 144.0
128.0 83.44909 145.0
128.0 83.44923 107.0
128.0 83.44911 108.0
128.0 83.449005 109.0
128.0 172.54324 168.0
128.0 83.451416 166.0
128.0 83.44918 167.0
128.0 83.46389 165.0
128.0 83.456696 168.0
128.0 83.44925 83.0
128.0 172.55296 197.0
128.0 172.5457 198.0
128.0 172.53844 199.0
128.0 83.44704 197.0
128.0 83.4543 198.0
128.0 83.46156 199.0
128.0 172.55072 83.0
128.0 83.46184 53.0
128.0 83.45452 54.0
128.0 172.53816 53.0
128.0 172.54547 54.0
128.0 172.54922 122.0
128.0 172.54845 123.0
128.0 172.54768 124.0
128.0 172.54683 132.0
128.0 172.5489 143.0
128.0 172.55081 144.0
128.0 172.55106 145.0
128.0 172.5501 109.0
128.0 172.5511 107.0
128.0 172.55106 108.0
128.0 172.54544 179.0
128.0 83.45457 179.0
128.0 83.45007 74.0
128.0 83.44931 72.0
128.0 83.45541 73.0
128.0 172.54991 74.0
128.0 172.55069 72.0
128.0 172.5446 73.0
128.0 83.44889 154.0
128.0 83.449486 98.0
128.0 172.5512 154.0
128.0 172.55063 98.0
128.0 172.55096 147.0
128.0 172.55107 148.0
128.0 83.4492 147.0
128.0 83.44906 148.0
128.0 83.44935 104.0
128.0 83.44931 105.0
128.0 172.55096 104.0
128.0 172.55106 105.0
128.0 172.55125 156.0
128.0 172.5512 155.0
128.0 83.44881 156.0
128.0 83.44888 155.0
128.0 83.44634 88.0
128.0 83.44933 96.0
128.0 83.44941 97.0
128.0 172.55074 96.0
128.0 172.55069 97.0
128.0 83.450584 110.0
128.0 83.44989 111.0
128.0 83.449196 112.0
128.0 83.45168 87.0
128.0 83.45031 89.0
128.0 172.55354 88.0
128.0 172.54822 87.0
128.0 172.54985 89.0
128.0 165.0 207.14525
128.0 166.0 206.9837
128.0 167.0 206.82217
128.0 89.0 206.82219
128.0 90.0 206.98372
128.0 91.0 207.14525
128.0 84.0 202.06642
128.0 85.0 203.82246
128.0 172.0 202.0664
128.0 171.0 203.82246
128.0 168.0 206.34999
128.0 169.0 205.826
128.0 170.0 205.00095
128.0 87.0 205.82603
128.0 88.0 206.35
128.0 86.0 205.00093
128.0 166.0 57.41724
128.0 90.0 182.74535
128.0 166.0 142.74646
128.0 166.0 143.12486
128.0 166.0 97.31643
128.0 166.0 96.92611
128.0 90.0 142.64005
128.0 90.0 143.09583
128.0 90.0 97.33339
128.0 90.0 96.96929
128.0 166.0 57.20094
128.0 166.0 131.8463
128.0 90.0 131.71742
128.0 90.0 76.76735
128.0 90.0 182.9575
128.0 166.0 76.753975
128.0 166.0 163.38414
128.0 90.0 163.43324
128.0 166.0 131.87521
128.0 166.0 82.65342
128.0 166.0 157.49055
128.0 90.0 157.553
128.0 90.0 131.83379
128.0 90.0 62.991634
128.0 90.0 63.107338
128.0 166.0 62.988792
128.0 166.0 63.106964
128.0 166.0 177.16705
128.0 166.0 177.04987
128.0 90.0 177.17165
128.0 90.0 177.0592
128.0 166.0 102.723015
128.0 166.0 102.57001
128.0 166.0 137.22733
128.0 166.0 137.49591
128.0 90.0 102.76902
128.0 90.0 102.61279
128.0 90.0 137.0921
128.0 90.0 137.46385
128.0 90.0 77.05348
128.0 166.0 82.61038
128.0 166.0 77.057785
128.0 166.0 157.50693
128.0 166.0 163.09499
128.0 90.0 191.16779
128.0 90.0 157.70908
128.0 90.0 163.09264
128.0 166.0 191.19121
128.0 166.0 48.991764
128.0 90.0 48.966267
128.0 109.0 191.36642
128.0 110.0 191.36642
128.0 111.0 191.36642
128.0 142.0 191.36642
128.0 143.0 191.36642
128.0 147.0 191.36642
128.0 148.0 191.36642
128.0 98.0 191.36642
128.0 99.0 191.36642
128.0 164.0 191.36642
128.0 96.0 191.36642
128.0 97.0 191.36642
128.0 163.0 191.36642
128.0 159.0 191.36642
128.0 161.0 191.36642
128.0 162.0 191.36642
128.0 156.0 191.36642
128.0 102.0 191.36642
128.0 165.0 191.36642
128.0 146.0 191.36642
128.0 117.0 191.36642
128.0 91.0 191.36642
128.0 92.0 191.36642
128.0 100.0 191.36642
128.0 106.0 191.36642
128.0 107.0 191.36642
128.0 149.0 191.36642
128.0 157.0 191.36642
128.0 158.0 191.36642
128.0 103.0 191.36642
128.0 112.0 191.36642
128.0 113.0 191.36642
128.0 150.0 191.36642
128.0 160.0 191.36642
128.0 152.0 191.36642
128.0 153.0 191.36642
128.0 154.0 191.36642
128.0 155.0 191.36642
128.0 144.0 191.36642
128.0 145.0 191.36642
128.0 104.0 191.36642
128.0 151.0 191.36642
128.0 105.0 191.36642
128.0 118.0 191.36642
128.0 93.0 191.36642
128.0 94.0 191.36642
128.0 114.0 191.36642
128.0 101.0 191.36642
128.0 115.0 191.36642
128.0 116.0 191.36642
128.0 95.0 191.36642
128.0 121.0 191.36642
128.0 122.0 191.36642
128.0 134.0 191.36642
128.0 135.0 191.36642
128.0 127.0 191.36642
128.0 126.0 191.36642
128.0 130.0 191.36642
128.0 128.0 191.36642
128.0 123.0 191.36642
128.0 124.0 191.36642
128.0 136.0 191.36642
128.0 137.0 191.36642
128.0 129.0 191.36642
128.0 131.0 191.36642
128.0 119.0 191.36642
128.0 120.0 191.36642
128.0 132.0 191.36642
128.0 133.0 191.36642
128.0 125.0 191.36642
128.0 108.0 191.36642
128.0 139.0 191.36642
128.0 140.0 191.36642
128.0 141.0 191.36642
128.0 138.0 191.36642
128.0 84.0 52.209694
128.0 85.0 51.197872
128.0 86.0 50.197872
128.0 87.0 49.197872
128.0 172.0 52.209698
128.0 169.0 49.197876
128.0 170.0 50.197876
128.0 171.0 51.197876
128.0 166.0 48.791985
128.0 167.0 48.791985
128.0 168.0 48.791985
128.0 88.0 48.791985
128.0 89.0 48.791985
128.0 90.0 48.791985
128.0 150.0 207.20801
128.0 112.0 207.20801
128.0 111.0 207.20802
128.0 153.0 207.20801
128.0 148.0 207.20801
128.0 149.0 207.20801
128.0 108.0 207.20801
128.0 154.0 207.20801
128.0 155.0 207.20801
128.0 96.0 207.20801
128.0 97.0 207.20801
128.0 116.0 207.20801
128.0 117.0 207.20801
128.0 118.0 207.20801
128.0 151.0 207.20801
128.0 100.0 207.20801
128.0 101.0 207.20801
128.0 113.0 207.20801
128.0 159.0 207.20801
128.0 160.0 207.20801
128.0 98.0 207.20801
128.0 114.0 207.20801
128.0 105.0 207.20801
128.0 106.0 207.20801
128.0 104.0 207.20801
128.0 139.0 207.20801
128.0 156.0 207.20801
128.0 157.0 207.20801
128.0 158.0 207.20801
128.0 107.0 207.20801
128.0 99.0 207.20801
128.0 94.0 207.20802
128.0 95.0 207.20801
128.0 115.0 207.20801
128.0 147.0 207.20801
128.0 145.0 207.20801
128.0 146.0 207.20801
128.0 141.0 207.20801
128.0 92.0 207.20802
128.0 93.0 207.20802
128.0 142.0 207.20801
128.0 161.0 207.20801
128.0 162.0 207.20801
128.0 163.0 207.20801
128.0 164.0 207.20801
128.0 120.0 207.20801
128.0 144.0 207.20801
128.0 143.0 207.20801
128.0 140.0 207.20801
128.0 123.0 207.20802
128.0 122.0 207.20801
128.0 109.0 207.20801
128.0 110.0 207.20801
128.0 126.0 207.20801
128.0 137.0 207.20801
128.0 138.0 207.20801
128.0 125.0 207.20801
128.0 121.0 207.20802
128.0 132.0 207.20801
128.0 119.0 207.20801
128.0 127.0 207.20801
128.0 124.0 207.20801
128.0 135.0 207.20801
128.0 131.0 207.20801
128.0 152.0 207.20801
128.0 133.0 207.20801
128.0 130.0 207.20802
128.0 129.0 207.20801
128.0 134.0 207.20801
128.0 128.0 207.20801
128.0 103.0 207.20801
128.0 136.0 207.20802
128.0 102.0 207.20801
